<svg width="457" height="398" viewBox="0 0 457 398" fill="none" xmlns="http://www.w3.org/2000/svg">
<path d="M291.6 203.2H317.8V207.2H310V211.2H298.8V214C298.8 214.533 298.733 215.067 298.6 215.6C298.6 216.133 298.6 216.667 298.6 217.2H299.2C299.2 217.733 299.133 218.267 299 218.8C299 219.2 299 219.667 299 220.2H297.2C297.2 220.467 297.2 220.8 297.2 221.2C297.2 221.6 297.133 221.933 297 222.2H278.6C278.467 222.467 278.4 222.8 278.4 223.2C278.4 223.6 278.333 223.933 278.2 224.2H278.4L277.8 227.2H292.2C292.067 227.733 291.933 228.267 291.8 228.8C291.667 229.2 291.533 229.667 291.4 230.2H293.6C293.467 230.867 293.267 231.533 293 232.2C292.733 232.867 292.467 233.533 292.2 234.2H294.8L294 236.2H291C290.733 236.867 290.4 237.533 290 238.2C289.733 238.867 289.4 239.533 289 240.2H297L295.8 242.2H297.4C297.133 242.467 296.867 242.8 296.6 243.2C296.467 243.6 296.267 243.933 296 244.2H284.6C284.467 244.333 284.333 244.467 284.2 244.6C284.067 244.733 283.933 244.933 283.8 245.2H296.8C296.267 246 295.733 246.667 295.2 247.2H292C291.6 247.733 291.133 248.267 290.6 248.8C290.2 249.2 289.733 249.667 289.2 250.2H296.2L293 253.2H290.8L289.6 254.2H283.6C282.4 255.133 281 256.133 279.4 257.2H278.2C277.4 257.733 276.533 258.267 275.6 258.8C274.8 259.2 273.933 259.667 273 260.2H269.2L267 261.2H261.8C259.267 262.4 256.8 263.4 254.4 264.2H249.4C245.8 265.4 242 266.4 238 267.2H234.2C233.133 267.333 232 267.467 230.8 267.6C229.733 267.867 228.667 268.067 227.6 268.2H233C230.867 268.467 228.6 268.667 226.2 268.8C223.933 268.933 221.6 269 219.2 269C216.667 269 214.2 268.933 211.8 268.8C209.533 268.667 207.267 268.467 205 268.2H199.8C198.6 268.067 197.467 267.867 196.4 267.6C195.333 267.467 194.267 267.333 193.2 267.2H197C193 266.4 189.2 265.4 185.6 264.2H190.6C188.2 263.4 185.8 262.4 183.4 261.2H188.8C188.4 260.933 188 260.733 187.6 260.6C187.333 260.467 187.067 260.333 186.8 260.2H190.8C189.867 259.667 189 259.2 188.2 258.8C187.4 258.267 186.6 257.733 185.8 257.2H187.2L183.2 254.2H189.2L188 253.2H190.2L187.2 250.2H180.4C179.867 249.667 179.4 249.2 179 248.8C178.6 248.267 178.2 247.733 177.8 247.2H181C180.867 246.933 180.667 246.6 180.4 246.2C180.133 245.8 179.867 245.467 179.6 245.2H166.6L166 244.2H177.4L176.2 242.2H174.8L173.6 240.2H165.6L163.8 236.2H166.8C166.667 235.933 166.533 235.6 166.4 235.2C166.267 234.8 166.133 234.467 166 234.2H163.4C163.133 233.533 162.867 232.867 162.6 232.2C162.467 231.533 162.267 230.867 162 230.2H159.8C159.667 229.667 159.533 229.2 159.4 228.8C159.267 228.267 159.133 227.733 159 227.2H157.4C157.267 226.667 157.133 226.2 157 225.8C156.867 225.267 156.733 224.733 156.6 224.2H145.4C145.267 223.933 145.2 223.6 145.2 223.2C145.2 222.8 145.133 222.467 145 222.2H163.4C163.4 221.933 163.4 221.6 163.4 221.2C163.4 220.8 163.333 220.467 163.2 220.2H161C160.867 219.667 160.733 219.2 160.6 218.8C160.6 218.267 160.6 217.733 160.6 217.2H168.6C168.6 216.667 168.6 216.2 168.6 215.8C168.6 215.267 168.533 214.733 168.4 214.2H176V211.2H153.4V207.2H170.2C170.067 206.533 170 205.867 170 205.2C170 204.533 170 203.867 170 203.2H172.6V201.2H156V199.2H157.8V196.2H163.2V194.2H160.4V193.2H159.4V189.2H159.6V185.2H160.2V184.2H160.8V183.2H157V182.2H161.2V181.2H160.2C160.333 180.667 160.4 180.2 160.4 179.8C160.4 179.267 160.4 178.733 160.4 178.2H162V177.2H158.8C158.8 176.533 158.8 175.867 158.8 175.2C158.933 174.533 159 173.867 159 173.2H160.4C160.533 172.933 160.6 172.6 160.6 172.2C160.6 171.8 160.667 171.467 160.8 171.2H161.8L162.4 168.2H155.6L156.2 165.2H162.2C162.467 164.533 162.667 163.867 162.8 163.2C162.933 162.4 163.133 161.733 163.4 161.2H165.8L166.2 160.2H164.8C164.933 159.667 165.067 159.2 165.2 158.8C165.467 158.267 165.667 157.733 165.8 157.2H165.6C165.867 156.667 166.067 156.2 166.2 155.8C166.467 155.267 166.733 154.733 167 154.2H166.4L168.2 151.2H169.8L170.4 150.2H168.6L170.8 147.2H182.8C183.2 146.8 183.467 146.467 183.6 146.2H172.4L174.2 144.2H173.2L176.2 141.2C177 140.533 177.8 139.867 178.6 139.2C179.4 138.4 180.267 137.733 181.2 137.2H181.4C182.467 136.533 183.533 135.867 184.6 135.2C185.667 134.4 186.8 133.733 188 133.2C188.667 132.8 189.333 132.467 190 132.2C190.8 131.8 191.533 131.467 192.2 131.2H192.6C195.4 130 198.4 129 201.6 128.2H201.4C205.4 127.133 209.6 126.333 214 125.8C218.533 125.267 223.2 125 228 125C233.067 125 237.8 125.267 242.2 125.8C246.733 126.333 251.067 127.133 255.2 128.2C258.533 129 261.667 130 264.6 131.2H264.2C265 131.467 265.8 131.8 266.6 132.2C267.4 132.467 268.2 132.8 269 133.2C270.333 133.733 271.6 134.4 272.8 135.2C274 135.867 275.2 136.533 276.4 137.2H276.2C277.267 137.733 278.2 138.4 279 139.2C279.933 139.867 280.867 140.533 281.8 141.2H281.6C282.267 141.733 282.867 142.267 283.4 142.8C283.933 143.2 284.467 143.667 285 144.2H286L287.8 146.2H299L300 147.2H287.8C288.333 147.733 288.733 148.267 289 148.8C289.4 149.2 289.8 149.667 290.2 150.2H292L292.6 151.2H291C291.267 151.733 291.533 152.267 291.8 152.8C292.2 153.2 292.467 153.667 292.6 154.2H293.2C293.467 154.733 293.733 155.267 294 155.8C294.267 156.2 294.467 156.667 294.6 157.2H295C295.267 157.733 295.467 158.267 295.6 158.8C295.733 159.2 295.867 159.667 296 160.2H297.6C297.6 160.333 297.6 160.467 297.6 160.6C297.733 160.733 297.8 160.933 297.8 161.2H295.4C295.667 161.867 295.8 162.533 295.8 163.2C295.933 163.867 296.067 164.533 296.2 165.2H296.6C296.6 165.733 296.6 166.267 296.6 166.8C296.733 167.2 296.8 167.667 296.8 168.2H300C300.133 168.467 300.2 168.933 300.2 169.6C300.2 170.133 300.067 170.667 299.8 171.2H296.4C296.133 172.133 295.6 172.8 294.8 173.2H296.2C295.533 173.733 294.667 174 293.6 174H249.4C247.667 174 246.333 173.733 245.4 173.2H244C243.2 172.667 242.667 172.2 242.4 171.8L241.8 171.2H245.4C245.133 170.8 244.8 170.333 244.4 169.8C244 169.267 243.467 168.733 242.8 168.2H239.6C238.267 166.867 236.733 165.867 235 165.2H234.6C232.867 164.4 230.6 164 227.8 164C225 164 222.6 164.4 220.6 165.2H214.6C212.867 165.733 211.4 166.733 210.2 168.2H217C216.333 168.867 215.667 169.867 215 171.2H213.8C213.667 171.467 213.533 171.8 213.4 172.2C213.267 172.467 213.133 172.8 213 173.2H211.6C211.467 173.733 211.333 174.4 211.2 175.2C211.067 175.867 210.933 176.533 210.8 177.2H214.2C214.067 177.467 214 177.8 214 178.2H212.4V181.2H213.2V182.2H209V183.2H212.8V184.2H212.2V185.2H211.6V189.2H211.4V193.2H212.4V194.2H215.2V196.2H209.8V199.2H208V201.2H224.6V203.2H222C222 203.867 222 204.533 222 205.2C222.133 205.867 222.2 206.533 222.2 207.2H205.4V211.2H228V214.2H220.6C220.6 214.733 220.6 215.267 220.6 215.8C220.733 216.2 220.8 216.667 220.8 217.2H212.8C212.933 217.733 213.067 218.267 213.2 218.8C213.333 219.2 213.467 219.667 213.6 220.2H215.8C215.933 220.6 216.067 221 216.2 221.4C216.333 221.667 216.467 221.933 216.6 222.2H198.2C198.333 222.867 198.733 223.533 199.4 224.2H210.6C211.4 225.4 212.4 226.4 213.6 227.2H215.4C217.8 229.067 221.2 230 225.6 230C227.867 230 230 229.8 232 229.4C234 228.867 235.667 228.133 237 227.2H222.8C223.867 226.533 224.933 225.533 226 224.2H225.8C226.333 223.4 226.667 222.733 226.8 222.2H245.4L246 220.2H247.8C247.933 219.667 248 219.2 248 218.8C248.133 218.267 248.2 217.733 248.2 217.2H247.6L247.8 215.8V215.6H238.4C237.067 215.6 235.8 215.133 234.6 214.2C233.667 213.267 233.133 212.267 233 211.2H244.4C244.267 210.933 244.2 210.6 244.2 210.2V207.2H252V203.2H225.8V201.2H236.4V199.2H229V196.2H231V194.2H232.4V193.2H230.8V189.2H231.4V188C231.4 186.8 231.667 185.867 232.2 185.2H231.4C231.533 184.933 231.8 184.6 232.2 184.2H233.4C233.933 183.667 234.333 183.333 234.6 183.2H231C231.667 182.8 232.467 182.6 233.4 182.6H288.4C289.467 182.6 290.267 182.8 290.8 183.2H294.6C295 183.333 295.467 183.667 296 184.2H294.8C295.2 184.6 295.467 184.933 295.6 185.2H296.4C296.933 185.867 297.2 186.8 297.2 188V189.2H296.6V193.2H298.2V194.2H296.8V196.2H294.8V199.2H302.2V201.2H291.6V203.2Z" fill="url(#paint0_linear_1_2)"/>
<defs>
<linearGradient id="paint0_linear_1_2" x1="228.5" y1="80" x2="228.5" y2="317" gradientUnits="userSpaceOnUse">
<stop stop-color="#61CAF8"/>
<stop offset="1" stop-color="#0F60A0"/>
</linearGradient>
</defs>
</svg>
